REM DIRINDEX 1\2,1\4,1\5,1\6,1\7,1\3\8,1\3\9,1\3\10
REM DIRNAME cjc113,folder01,folder02,folder03,folder04,folder05,folder06,folder07,folder08,folder09
TITLE ""
FILE "DB4500_5th_1A_25.mp3" MP3
  TRACK 01 AUDIO
    TITLE "0:"
    INDEX 01 00:00:00
  TRACK 02 AUDIO
    TITLE "8:cjc113_0959"
    INDEX 01 00:00:01
  TRACK 03 AUDIO
    TITLE "0:"
    INDEX 01 00:01:22
  TRACK 04 AUDIO
    TITLE "9:cjc113_0960"
    INDEX 01 00:01:42
  TRACK 05 AUDIO
    TITLE "0:"
    INDEX 01 00:02:71
  TRACK 06 AUDIO
    TITLE "10:cjc113_0961"
    INDEX 01 00:03:06
  TRACK 07 AUDIO
    TITLE "0:"
    INDEX 01 00:07:15
  TRACK 08 AUDIO
    TITLE "8:cjc113_0962"
    INDEX 01 00:07:60
  TRACK 09 AUDIO
    TITLE "0:"
    INDEX 01 00:09:02
  TRACK 10 AUDIO
    TITLE "9:cjc113_0963"
    INDEX 01 00:09:22
  TRACK 11 AUDIO
    TITLE "0:"
    INDEX 01 00:10:47
  TRACK 12 AUDIO
    TITLE "10:cjc113_0964"
    INDEX 01 00:10:63
  TRACK 13 AUDIO
    TITLE "0:"
    INDEX 01 00:14:66
  TRACK 14 AUDIO
    TITLE "8:cjc113_0965"
    INDEX 01 00:15:27
  TRACK 15 AUDIO
    TITLE "0:"
    INDEX 01 00:16:40
  TRACK 16 AUDIO
    TITLE "9:cjc113_0966"
    INDEX 01 00:16:63
  TRACK 17 AUDIO
    TITLE "0:"
    INDEX 01 00:18:19
  TRACK 18 AUDIO
    TITLE "10:cjc113_0967"
    INDEX 01 00:18:35
  TRACK 19 AUDIO
    TITLE "0:"
    INDEX 01 00:21:66
  TRACK 20 AUDIO
    TITLE "8:cjc113_0968"
    INDEX 01 00:22:34
  TRACK 21 AUDIO
    TITLE "0:"
    INDEX 01 00:23:34
  TRACK 22 AUDIO
    TITLE "9:cjc113_0969"
    INDEX 01 00:23:55
  TRACK 23 AUDIO
    TITLE "0:"
    INDEX 01 00:25:13
  TRACK 24 AUDIO
    TITLE "10:cjc113_0970"
    INDEX 01 00:25:33
  TRACK 25 AUDIO
    TITLE "0:"
    INDEX 01 00:28:55
  TRACK 26 AUDIO
    TITLE "8:cjc113_0971"
    INDEX 01 00:29:25
  TRACK 27 AUDIO
    TITLE "0:"
    INDEX 01 00:31:53
  TRACK 28 AUDIO
    TITLE "9:cjc113_0972"
    INDEX 01 00:32:00
  TRACK 29 AUDIO
    TITLE "0:"
    INDEX 01 00:32:68
  TRACK 30 AUDIO
    TITLE "10:cjc113_0973"
    INDEX 01 00:33:15
  TRACK 31 AUDIO
    TITLE "0:"
    INDEX 01 00:36:62
  TRACK 32 AUDIO
    TITLE "8:cjc113_0974"
    INDEX 01 00:37:32
  TRACK 33 AUDIO
    TITLE "0:"
    INDEX 01 00:38:35
  TRACK 34 AUDIO
    TITLE "9:cjc113_0975"
    INDEX 01 00:38:55
  TRACK 35 AUDIO
    TITLE "0:"
    INDEX 01 00:40:05
  TRACK 36 AUDIO
    TITLE "10:cjc113_0976"
    INDEX 01 00:40:24
  TRACK 37 AUDIO
    TITLE "0:"
    INDEX 01 00:43:35
  TRACK 38 AUDIO
    TITLE "8:cjc113_0977"
    INDEX 01 00:44:01
  TRACK 39 AUDIO
    TITLE "0:"
    INDEX 01 00:45:14
  TRACK 40 AUDIO
    TITLE "9:cjc113_0978"
    INDEX 01 00:45:32
  TRACK 41 AUDIO
    TITLE "0:"
    INDEX 01 00:46:56
  TRACK 42 AUDIO
    TITLE "10:cjc113_0979"
    INDEX 01 00:46:74
  TRACK 43 AUDIO
    TITLE "0:"
    INDEX 01 00:50:07
  TRACK 44 AUDIO
    TITLE "8:cjc113_0980"
    INDEX 01 00:50:48
  TRACK 45 AUDIO
    TITLE "0:"
    INDEX 01 00:51:62
  TRACK 46 AUDIO
    TITLE "9:cjc113_0981"
    INDEX 01 00:52:08
  TRACK 47 AUDIO
    TITLE "0:"
    INDEX 01 00:53:09
  TRACK 48 AUDIO
    TITLE "10:cjc113_0982"
    INDEX 01 00:53:21
  TRACK 49 AUDIO
    TITLE "0:"
    INDEX 01 00:55:53
  TRACK 50 AUDIO
    TITLE "8:cjc113_0983"
    INDEX 01 00:56:25
  TRACK 51 AUDIO
    TITLE "0:"
    INDEX 01 00:57:35
  TRACK 52 AUDIO
    TITLE "9:cjc113_0984"
    INDEX 01 00:57:54
  TRACK 53 AUDIO
    TITLE "0:"
    INDEX 01 00:59:14
  TRACK 54 AUDIO
    TITLE "10:cjc113_0985"
    INDEX 01 00:59:36
  TRACK 55 AUDIO
    TITLE "0:"
    INDEX 01 01:04:15
  TRACK 56 AUDIO
    TITLE "8:cjc113_0986"
    INDEX 01 01:04:60
  TRACK 57 AUDIO
    TITLE "0:"
    INDEX 01 01:05:58
  TRACK 58 AUDIO
    TITLE "9:cjc113_0987"
    INDEX 01 01:06:04
  TRACK 59 AUDIO
    TITLE "0:"
    INDEX 01 01:07:25
  TRACK 60 AUDIO
    TITLE "10:cjc113_0988"
    INDEX 01 01:07:45
  TRACK 61 AUDIO
    TITLE "0:"
    INDEX 01 01:13:26
  TRACK 62 AUDIO
    TITLE "8:cjc113_0989"
    INDEX 01 01:13:73
  TRACK 63 AUDIO
    TITLE "0:"
    INDEX 01 01:16:32
  TRACK 64 AUDIO
    TITLE "9:cjc113_0990"
    INDEX 01 01:16:52
  TRACK 65 AUDIO
    TITLE "0:"
    INDEX 01 01:18:02
  TRACK 66 AUDIO
    TITLE "10:cjc113_0991"
    INDEX 01 01:18:21
  TRACK 67 AUDIO
    TITLE "0:"
    INDEX 01 01:23:16
